<svg width="24" height="24" viewBox="0 0 24 24" fill="none" xmlns="http://www.w3.org/2000/svg">
<g filter="url(#filter0_d)">
<rect x="4" y="2" width="16" height="16" rx="3" fill="url(#paint0_linear)"/>
</g>
<path d="M8.35355 10.1464C8.15829 9.95118 7.84171 9.95118 7.64645 10.1464C7.45118 10.3417 7.45118 10.6583 7.64645 10.8536L10.1464 13.3536C10.3417 13.5488 10.6583 13.5488 10.8536 13.3536L16.3536 7.85355C16.5488 7.65829 16.5488 7.34171 16.3536 7.14645C16.1583 6.95118 15.8417 6.95118 15.6464 7.14645L10.5 12.2929L8.35355 10.1464Z" fill="black"/>
<mask id="mask0" mask-type="alpha" maskUnits="userSpaceOnUse" x="7" y="7" width="10" height="7">
<path d="M8.35355 10.1464C8.15829 9.95118 7.84171 9.95118 7.64645 10.1464C7.45118 10.3417 7.45118 10.6583 7.64645 10.8536L10.1464 13.3536C10.3417 13.5488 10.6583 13.5488 10.8536 13.3536L16.3536 7.85355C16.5488 7.65829 16.5488 7.34171 16.3536 7.14645C16.1583 6.95118 15.8417 6.95118 15.6464 7.14645L10.5 12.2929L8.35355 10.1464Z" fill="white"/>
</mask>
<g mask="url(#mask0)">
<rect x="6" y="4" width="12" height="12" fill="white"/>
</g>
<defs>
<filter id="filter0_d" x="0" y="0" width="24" height="24" filterUnits="userSpaceOnUse" color-interpolation-filters="sRGB">
<feFlood flood-opacity="0" result="BackgroundImageFix"/>
<feColorMatrix in="SourceAlpha" type="matrix" values="0 0 0 0 0 0 0 0 0 0 0 0 0 0 0 0 0 0 127 0"/>
<feOffset dy="2"/>
<feGaussianBlur stdDeviation="2"/>
<feColorMatrix type="matrix" values="0 0 0 0 0 0 0 0 0 0 0 0 0 0 0 0 0 0 0.5 0"/>
<feBlend mode="normal" in2="BackgroundImageFix" result="effect1_dropShadow"/>
<feBlend mode="normal" in="SourceGraphic" in2="effect1_dropShadow" result="shape"/>
</filter>
<linearGradient id="paint0_linear" x1="20" y1="18" x2="20" y2="2" gradientUnits="userSpaceOnUse">
<stop stop-color="#0064D2"/>
<stop offset="1" stop-color="#56A7FF"/>
</linearGradient>
</defs>
</svg>
